<svg width="16" height="16" viewBox="0 0 16 16" fill="none" xmlns="http://www.w3.org/2000/svg">
<path d="M9.4375 8L1 8.00001" stroke="#333333" stroke-width="1.5" stroke-linecap="round" stroke-linejoin="round"/>
<path d="M14.75 8.00001L12.5625 8" stroke="#333333" stroke-width="1.5" stroke-linecap="round" stroke-linejoin="round"/>
<path d="M9.4375 8C9.4375 8.86294 10.1371 9.5625 11 9.5625C11.8629 9.5625 12.5625 8.86294 12.5625 8C12.5625 7.13706 11.8629 6.4375 11 6.4375C10.1371 6.4375 9.4375 7.13705 9.4375 8Z" stroke="#333333" stroke-width="1.5" stroke-linecap="round" stroke-linejoin="round"/>
<path d="M3.1875 13.625L1 13.6251" stroke="#333333" stroke-width="1.5" stroke-linecap="round" stroke-linejoin="round"/>
<path d="M14.75 13.6251L6.3125 13.625" stroke="#333333" stroke-width="1.5" stroke-linecap="round" stroke-linejoin="round"/>
<path d="M3.1875 13.625C3.1875 14.4879 3.88706 15.1875 4.75 15.1875C5.61294 15.1875 6.3125 14.4879 6.3125 13.625C6.3125 12.7621 5.61294 12.0625 4.75 12.0625C3.88706 12.0625 3.1875 12.7621 3.1875 13.625Z" stroke="#333333" stroke-width="1.5" stroke-linecap="round" stroke-linejoin="round"/>
<path d="M5.6875 2.37492L1 2.37488" stroke="#333333" stroke-width="1.5" stroke-linecap="round" stroke-linejoin="round"/>
<path d="M14.75 2.37488L8.8125 2.37492" stroke="#333333" stroke-width="1.5" stroke-linecap="round" stroke-linejoin="round"/>
<path d="M5.6875 2.375C5.6875 3.23794 6.38706 3.9375 7.25 3.9375C8.11294 3.9375 8.8125 3.23794 8.8125 2.375C8.8125 1.51205 8.11294 0.8125 7.25 0.8125C6.38706 0.8125 5.6875 1.51205 5.6875 2.375Z" stroke="#333333" stroke-width="1.5" stroke-linecap="round" stroke-linejoin="round"/>
</svg>
