<svg width="31" height="12" viewBox="0 0 31 12" fill="none" xmlns="http://www.w3.org/2000/svg">
<g clip-path="url(#clip0)">
<path d="M15.0914 11.096C11.8116 11.096 8.53117 11.0744 5.25142 11.1064C3.94235 11.1189 2.96301 10.6038 2.22162 9.58823C1.59815 8.73462 1.22252 7.77535 1.00999 6.74934C0.995232 6.67223 0.997497 6.5929 1.01663 6.51673C1.03576 6.44056 1.07132 6.36933 1.12088 6.30788C1.17044 6.24643 1.23285 6.1962 1.30387 6.16058C1.37489 6.12497 1.45286 6.10482 1.53249 6.10149C1.70273 6.09106 1.87346 6.09106 2.04369 6.10149C2.21527 6.11261 2.2654 6.04518 2.2647 5.88113C2.25975 4.52355 2.2647 3.16598 2.2647 1.8084C2.2647 1.73889 2.2647 1.66937 2.2647 1.59986C2.26958 1.41845 2.34439 1.24566 2.47395 1.11656C2.60351 0.987467 2.7781 0.911735 2.9623 0.904738C3.02091 0.899872 3.08022 0.904738 3.13882 0.904738C7.57678 0.900567 12.0147 0.89686 16.4527 0.893616C16.9738 0.893616 17.3395 1.19739 17.3304 1.75766C17.3092 3.12079 17.3233 4.48463 17.324 5.84777C17.324 6.09662 17.324 6.09732 17.5803 6.09732C17.98 6.09732 18.3801 6.09732 18.7807 6.09732C18.9428 6.0995 19.1036 6.06878 19.2532 6.00707C19.4027 5.94535 19.5377 5.85398 19.6498 5.73863C19.7572 5.63228 19.8708 5.53009 19.9725 5.41888C20.2302 5.13596 20.5572 5.02543 20.9328 5.02613C21.3084 5.02683 21.2731 5.04976 21.2731 4.68482C21.2731 3.78904 21.2731 2.89349 21.2731 1.99817C21.2731 1.30304 21.6834 0.899872 22.3916 0.898482C22.8795 0.898482 23.3674 0.898482 23.8553 0.898482C24.466 0.898482 24.8226 1.17653 24.9575 1.76391C24.9779 1.85358 25.0012 1.92309 25.1043 1.95577C25.1638 1.97505 25.215 2.01323 25.2501 2.06431C25.2851 2.1154 25.3019 2.17649 25.2978 2.23799C25.3037 2.3047 25.29 2.37168 25.2581 2.43088C25.2263 2.49007 25.1778 2.53895 25.1184 2.57165C24.9426 2.67244 24.9419 2.68426 25.1135 2.78505C25.1743 2.81531 25.2244 2.86298 25.2571 2.92179C25.2899 2.9806 25.3038 3.04779 25.2971 3.11454C25.2865 3.248 25.2371 3.36895 25.0973 3.41414C24.9575 3.45932 24.9645 3.5483 24.9822 3.64839C25.0026 3.76239 25.1008 3.74293 25.1799 3.74293C25.7031 3.74293 26.2263 3.74293 26.7488 3.74293C26.8488 3.73902 26.9488 3.74884 27.046 3.77213C27.2699 3.8333 27.4203 3.96328 27.4527 4.19824C27.4683 4.30673 27.4767 4.41609 27.4782 4.52564C27.4817 5.02474 27.4782 5.02474 27.9957 5.02474C28.7661 5.02474 29.5357 5.02474 30.306 5.02474C30.7191 5.02474 31.0079 5.26664 31.0001 5.60864C30.9944 5.86473 30.9215 6.115 30.7883 6.33505C30.6422 6.57451 30.4319 6.7696 30.1803 6.89879C29.0186 7.51885 27.8564 8.13797 26.6937 8.75617C26.6266 8.79231 26.5631 8.83402 26.4939 8.866C26.2821 8.9654 26.2023 9.13084 26.2115 9.35745C26.2199 9.68068 26.2157 10.0046 26.2115 10.3306C26.2079 10.8054 25.9114 11.0953 25.4263 11.0953L15.0914 11.096ZM14.5724 10.2215H24.8176C25.0478 10.2215 25.0528 10.2152 25.0535 9.98654C25.0535 9.68624 25.0535 9.38502 25.0535 9.08288C25.0535 8.66093 25.259 8.34674 25.6063 8.13612C25.994 7.90464 26.3979 7.70583 26.7954 7.4973C27.6733 7.02693 28.5514 6.55818 29.4298 6.09106C29.5848 6.0058 29.7073 5.87301 29.7786 5.71291C29.828 5.61212 29.816 5.54469 29.6776 5.54886C29.5724 5.54886 29.4658 5.54886 29.3606 5.54886C26.4805 5.54886 23.6004 5.55721 20.7203 5.53913C20.5434 5.53176 20.3672 5.56571 20.2062 5.6382C20.0452 5.71069 19.9039 5.81966 19.7939 5.95621C19.6116 6.16949 19.3829 6.33965 19.1248 6.45408C18.8667 6.56852 18.5857 6.62429 18.3026 6.61727C12.7425 6.61727 7.18185 6.61727 1.62075 6.61727C1.56779 6.61727 1.51413 6.61727 1.46188 6.61727C1.32419 6.60545 1.30372 6.66732 1.33549 6.78479C1.54732 7.58488 1.85446 8.34604 2.35507 9.01614C2.94606 9.8072 3.70581 10.2403 4.7501 10.2319C8.0242 10.2083 11.2983 10.2215 14.5724 10.2215ZM23.9103 4.84887H25.9728C26.2955 4.84887 26.2955 4.84887 26.2941 4.53885C26.2941 4.29555 26.2891 4.29138 26.0328 4.29138C25.5513 4.29138 25.069 4.29138 24.5875 4.29138C24.0932 4.28582 23.8171 4.00986 23.8164 3.52258C23.8164 2.96231 23.8164 2.40204 23.8164 1.84177C23.8164 1.53869 23.6971 1.42469 23.3928 1.42052C22.9169 1.42052 22.441 1.42052 21.9651 1.42052C21.6389 1.42052 21.5372 1.52479 21.5365 1.8515C21.5365 2.77555 21.5365 3.6996 21.5365 4.62365C21.5365 4.84123 21.545 4.84957 21.7638 4.84957L23.9103 4.84887ZM3.3916 2.07533C3.52646 2.07533 3.66133 2.07533 3.79689 2.07533C4.30386 2.06768 4.23325 2.14971 4.24525 1.63253C4.24949 1.46223 4.17465 1.41357 4.01437 1.41704C3.67403 1.42469 3.3337 1.41704 2.99267 1.41704C2.4504 1.42469 2.53159 1.32459 2.52171 1.90363C2.52171 2.03501 2.58173 2.07394 2.70458 2.07185C2.93335 2.07046 3.16283 2.07533 3.3916 2.07533ZM15.3053 2.07533C15.4402 2.07533 15.575 2.07533 15.7099 2.07533C16.2303 2.06699 16.159 2.15805 16.1674 1.6082C16.1674 1.46362 16.1046 1.41635 15.9655 1.41843C15.6125 1.42261 15.2594 1.41843 14.9099 1.41843C14.3867 1.4233 14.4503 1.34475 14.4439 1.90016C14.4439 2.02458 14.4898 2.07811 14.619 2.07533C14.8478 2.06977 15.0765 2.07533 15.3053 2.07533ZM3.37748 5.92006C3.5187 5.92006 3.65991 5.92006 3.80113 5.92006C4.29539 5.9145 4.23819 5.98471 4.24667 5.47101C4.24667 5.32434 4.19724 5.26247 4.04332 5.26734C3.69027 5.27429 3.33723 5.26734 2.98914 5.26734C2.45181 5.27429 2.53512 5.17836 2.52312 5.74002C2.52312 5.87905 2.57961 5.92284 2.71235 5.91867C2.93265 5.91519 3.15506 5.92006 3.37748 5.92006ZM15.3103 5.26942C15.169 5.26942 15.0278 5.26942 14.8866 5.26942C14.3924 5.27568 14.4495 5.19991 14.4418 5.71778C14.4418 5.86584 14.4947 5.92632 14.6472 5.92214C15.0003 5.91519 15.3533 5.92214 15.7014 5.92214C16.2324 5.91589 16.1569 6.00973 16.1667 5.44668C16.1667 5.30766 16.1074 5.26664 15.9761 5.27012C15.7558 5.2729 15.5327 5.2729 15.3096 5.2729L15.3103 5.26942ZM8.1633 5.92006C8.28616 5.92006 8.40972 5.92006 8.53258 5.92006C9.07979 5.91033 8.99295 6.01321 9.00424 5.43347C9.00424 5.30279 8.94917 5.26386 8.8249 5.26595C8.47963 5.27012 8.13365 5.26595 7.78837 5.26595C7.24328 5.27498 7.32095 5.15959 7.3153 5.76574C7.3153 5.87835 7.37037 5.91728 7.4784 5.91658C7.70647 5.91797 7.93524 5.91936 8.1633 5.92006ZM8.14918 2.07533H8.51917C8.98094 2.07533 8.97247 2.07533 8.99789 1.62906C9.00777 1.45945 8.94493 1.40453 8.7903 1.42052C8.45632 1.45458 8.12235 1.41009 7.78837 1.42052C7.2454 1.43651 7.32236 1.33224 7.31389 1.90711C7.31389 2.0371 7.3732 2.0788 7.49676 2.07672C7.71423 2.07046 7.93171 2.07533 8.14918 2.07533ZM5.77604 2.07533C5.89325 2.07533 6.01046 2.07533 6.12908 2.07533C6.68194 2.0649 6.59651 2.165 6.60851 1.59569C6.60851 1.45667 6.55061 1.41565 6.41857 1.41774C6.0846 1.4233 5.74991 1.41774 5.41594 1.41774C4.88779 1.424 4.96334 1.34058 4.95204 1.8793C4.95204 2.03501 5.01488 2.08089 5.16387 2.07533C5.3651 2.06838 5.57057 2.07533 5.77604 2.07533ZM5.78804 5.2729C5.66518 5.2729 5.54162 5.2729 5.41876 5.2729C4.88496 5.28263 4.96052 5.18323 4.95063 5.74558C4.95063 5.88461 5.00641 5.92701 5.13986 5.92493C5.47384 5.92006 5.80781 5.92493 6.14179 5.92493C6.68124 5.91797 6.59439 6.01043 6.6071 5.45155C6.6071 5.31252 6.55485 5.26873 6.42069 5.2729C6.20957 5.2729 5.99846 5.2729 5.78804 5.2729ZM10.5371 5.92354C10.6664 5.92354 10.7956 5.92354 10.9248 5.92354C11.4346 5.91728 11.3626 5.99305 11.3753 5.48213C11.3753 5.32712 11.3301 5.26456 11.1634 5.26942C10.8351 5.27985 10.5061 5.26942 10.1749 5.27359C9.63901 5.28194 9.71597 5.17419 9.70821 5.76505C9.70821 5.88739 9.76681 5.92632 9.8819 5.92423C10.1029 5.91728 10.319 5.92006 10.5371 5.92006V5.92354ZM10.5308 2.07533C10.6544 2.07533 10.7772 2.07533 10.9008 2.07533C11.4416 2.06699 11.3633 2.15527 11.3746 1.60403C11.3746 1.45458 11.3103 1.41565 11.1726 1.41774C10.8436 1.4233 10.5146 1.41774 10.1841 1.41774C9.64537 1.42747 9.71668 1.3086 9.71244 1.92309C9.71244 2.0364 9.76893 2.07394 9.87767 2.07255C10.0966 2.06977 10.314 2.07533 10.5308 2.07533ZM12.8976 2.07533C13.0204 2.07533 13.144 2.07533 13.2676 2.07533C13.7985 2.0656 13.7279 2.16222 13.7371 1.59847C13.7371 1.45945 13.6813 1.41565 13.5479 1.41774C13.2188 1.42261 12.8891 1.41774 12.5594 1.41774C12.0192 1.424 12.0842 1.32876 12.0806 1.92309C12.0806 2.03571 12.1364 2.07533 12.2445 2.07394C12.4626 2.07533 12.6801 2.07533 12.8976 2.07533ZM12.8919 5.92214C13.0211 5.92214 13.1504 5.92214 13.2789 5.92214C13.8007 5.9145 13.7244 5.99166 13.7385 5.4717C13.7428 5.30627 13.6729 5.26317 13.5189 5.26873C13.1906 5.27707 12.8623 5.26873 12.5339 5.2722C12.0291 5.27777 12.0849 5.19018 12.0806 5.74628C12.0806 5.86932 12.1315 5.92493 12.2593 5.92284C12.4697 5.91658 12.6808 5.91936 12.8919 5.92006V5.92214ZM3.36618 3.35366H3.87597C4.24949 3.35366 4.24243 3.35366 4.24667 2.98524C4.24667 2.81702 4.18241 2.7642 4.0179 2.76767C3.65497 2.77601 3.29134 2.76767 2.92841 2.77115C2.47934 2.77601 2.52524 2.69399 2.52242 3.19934C2.52242 3.30987 2.56972 3.35505 2.68058 3.35366C2.90935 3.35088 3.13741 3.35366 3.36618 3.35366ZM15.299 3.35366C15.4628 3.35366 15.6273 3.35366 15.7932 3.35366C16.202 3.3481 16.166 3.40927 16.171 2.96439C16.171 2.82537 16.118 2.76767 15.974 2.76906C15.599 2.77393 15.2241 2.76906 14.8492 2.76906C14.4255 2.76906 14.4255 2.76906 14.446 3.191C14.451 3.30987 14.4969 3.35575 14.6155 3.35366C14.8414 3.35088 15.0695 3.35436 15.2983 3.35436L15.299 3.35366ZM8.15553 3.35366C8.30805 3.35366 8.46056 3.35366 8.61307 3.35366C9.04802 3.3474 9.00142 3.42317 9.00354 2.94632C9.00354 2.9345 9.00354 2.92338 9.00354 2.91156C9.00354 2.82328 8.96188 2.79548 8.87221 2.79478C8.48316 2.79061 8.09834 2.77045 7.71212 2.77045C7.28847 2.77045 7.31035 2.68773 7.316 3.18753C7.316 3.30639 7.36896 3.35227 7.48687 3.35019C7.70647 3.35227 7.93241 3.35505 8.15483 3.35436L8.15553 3.35366ZM5.75486 3.35366H6.21169C6.61698 3.35366 6.61275 3.35366 6.6071 2.94979C6.6071 2.81494 6.55626 2.76698 6.42069 2.76906C6.06341 2.77393 5.70614 2.76906 5.34815 2.76906C4.91038 2.76906 4.95698 2.71345 4.94992 3.17432C4.94992 3.31334 5.00641 3.35714 5.13986 3.35366C5.34533 3.34949 5.55009 3.35366 5.75556 3.35366H5.75486ZM10.54 3.35366C10.6868 3.35366 10.8337 3.35366 10.9806 3.35366C11.4085 3.34879 11.3668 3.40997 11.3739 2.95953C11.3739 2.81563 11.3202 2.76628 11.1769 2.76837C10.8238 2.77462 10.4708 2.76837 10.1177 2.76837C9.69409 2.76837 9.6842 2.7781 9.70891 3.19587C9.71597 3.30431 9.75622 3.35366 9.86849 3.35227C10.0944 3.35158 10.319 3.35366 10.5407 3.35366H10.54ZM12.8955 3.35366C13.0416 3.35366 13.1885 3.35366 13.3346 3.35366C13.7752 3.3481 13.73 3.41275 13.7371 2.95188C13.7371 2.81772 13.6863 2.76698 13.5507 2.76906C13.1927 2.77393 12.8347 2.76906 12.4775 2.76906C12.058 2.76906 12.0764 2.69955 12.0813 3.19656C12.0813 3.3057 12.135 3.35297 12.2445 3.35227C12.4619 3.35227 12.6787 3.35366 12.8962 3.35366H12.8955ZM15.3046 4.57152H15.8321C16.1745 4.57152 16.1689 4.57152 16.1681 4.24203C16.1681 4.103 16.1201 4.0467 15.974 4.04948C15.575 4.05574 15.1761 4.04948 14.7772 4.04948C14.4354 4.04948 14.4404 4.04948 14.4418 4.37758C14.4418 4.5166 14.4884 4.57638 14.636 4.57152C14.8591 4.56596 15.0822 4.57152 15.3053 4.57152H15.3046ZM3.37183 4.57152C3.59425 4.57152 3.81666 4.56526 4.03908 4.57152C4.18947 4.57708 4.26079 4.52564 4.24314 4.37341C4.23961 4.33897 4.23961 4.30427 4.24314 4.26983C4.26079 4.10857 4.19442 4.04253 4.02354 4.0467C3.63732 4.05504 3.24686 4.0467 2.86416 4.0467C2.50476 4.0467 2.51112 4.0467 2.521 4.39982C2.52524 4.52981 2.58173 4.57013 2.70388 4.56804C2.92629 4.56804 3.14942 4.57152 3.37183 4.57152V4.57152ZM10.5463 4.57152H11.0561C11.3816 4.57152 11.376 4.57152 11.3753 4.24272C11.3753 4.1037 11.3273 4.0467 11.1811 4.04948C10.8062 4.05574 10.4312 4.04948 10.0563 4.04948C9.69338 4.04948 9.69832 4.04948 9.71103 4.4026C9.71597 4.53259 9.77458 4.57291 9.89603 4.57013C10.1128 4.56804 10.3296 4.57152 10.5463 4.57152V4.57152ZM12.9039 4.57152H13.4321C13.7399 4.57152 13.7315 4.57152 13.7385 4.26288C13.7428 4.09188 13.6743 4.04461 13.5105 4.04879C13.1355 4.05713 12.7592 4.04879 12.3807 4.04879C12.0743 4.04879 12.0743 4.04879 12.0785 4.35603C12.0792 4.36761 12.0792 4.37921 12.0785 4.39079C12.0651 4.52981 12.1343 4.5743 12.267 4.57013C12.481 4.56735 12.6928 4.57152 12.9039 4.57152ZM5.80005 4.05365H5.27119C4.94286 4.05365 4.94851 4.05365 4.94992 4.38105C4.94992 4.52008 4.99864 4.57847 5.1448 4.57569C5.50349 4.56943 5.86218 4.57569 6.22016 4.57569C6.59721 4.57569 6.59509 4.57569 6.60569 4.21353C6.60569 4.10231 6.56473 4.05504 6.45176 4.05713C6.23499 4.05574 6.01752 4.05365 5.80005 4.05365ZM7.316 4.26914C7.316 4.28026 7.316 4.31085 7.316 4.32266V4.35116L7.31953 4.44431C7.31953 4.5736 7.41344 4.56943 7.50312 4.57013H8.64697C9.02613 4.57013 9.02825 4.56457 9.00001 4.19407C8.99295 4.09119 8.95129 4.04948 8.84891 4.05018C8.38572 4.05018 7.92253 4.05018 7.45934 4.05018C7.38167 4.05018 7.31812 4.06755 7.31812 4.16209C7.31812 4.25663 7.31812 4.25524 7.31812 4.25524L7.316 4.26914Z" fill="#333333"/>
</g>
<defs>
<clipPath id="clip0">
<rect width="30" height="10.2128" fill="white" transform="translate(0.99884 0.893616)"/>
</clipPath>
</defs>
</svg>
