<svg width="22" height="30" viewBox="0 0 22 30" fill="none" xmlns="http://www.w3.org/2000/svg">
<g filter="url(#filter0_d)">
<g clip-path="url(#clip0)">
<path d="M4.20764 9.07684C4.20764 6.27581 4.20764 3.47577 4.20764 0.676705C4.20764 0.387858 4.32464 0.171223 4.60677 0.0493964C5.00694 -0.121062 5.48994 0.168767 5.50185 0.585826C5.50185 0.759724 5.50185 0.933621 5.50185 1.1085C5.50185 1.2318 5.50185 1.2318 5.62868 1.2318H17.0197C17.2563 1.2318 17.4929 1.2318 17.7295 1.2318C17.9272 1.2318 17.9977 1.2991 17.9977 1.48921C17.9977 2.35477 17.9977 3.22049 17.9977 4.08637V10.3251C17.9977 10.3516 17.9977 10.3781 17.9977 10.4046C17.992 10.555 17.9096 10.6326 17.7518 10.6331C17.2341 10.6331 16.7174 10.6331 16.2018 10.6331C12.6719 10.6331 9.14201 10.6331 5.61211 10.6331C5.50858 10.6331 5.49874 10.6704 5.49926 10.7515C5.49926 13.0111 5.49926 15.2708 5.49926 17.5305C5.49926 17.6735 5.46043 17.7417 5.35275 17.7761C5.31719 17.7863 5.28015 17.7911 5.24301 17.7904C5.00642 17.7904 4.76984 17.7904 4.53326 17.7904C4.27028 17.7933 4.20764 17.7339 4.20764 17.4883C4.20764 16.6669 4.20764 15.8457 4.20764 15.0247V9.07684ZM8.5277 4.50147C7.55066 4.50147 6.57379 4.50147 5.5971 4.50147C5.51427 4.50147 5.50081 4.53192 5.50081 4.59971C5.50288 5.4859 5.50288 6.37193 5.50081 7.25779C5.50081 7.3413 5.52411 7.37028 5.61574 7.36979C6.3348 7.36685 7.05334 7.36979 7.77188 7.36979C8.02399 7.36979 8.2761 7.37323 8.5277 7.37471C8.5277 7.40713 8.522 7.43955 8.522 7.47295C8.522 8.34997 8.522 9.22716 8.522 10.1045C8.522 10.2298 8.522 10.2303 8.65712 10.2303H11.3827C11.5334 10.2303 11.5344 10.2303 11.5344 10.0898C11.5344 9.21831 11.5344 8.34686 11.5344 7.47541C11.5344 7.39681 11.5535 7.36881 11.6426 7.36881C12.5744 7.37176 13.5099 7.36881 14.4432 7.37127C14.4738 7.37337 14.5042 7.37714 14.5344 7.38257C14.5409 7.4165 14.5453 7.45079 14.5473 7.48523C14.5473 8.36029 14.5473 9.23485 14.5473 10.1089C14.5473 10.2273 14.5509 10.2303 14.6715 10.2303C15.5961 10.2303 16.5207 10.2303 17.4448 10.2303C17.5369 10.2303 17.568 10.2091 17.5675 10.1168C17.564 9.23649 17.564 8.35603 17.5675 7.47541C17.5675 7.38748 17.5374 7.36783 17.4505 7.36832C16.5135 7.36832 15.5765 7.36832 14.6394 7.36832C14.6026 7.37045 14.5659 7.37505 14.5297 7.38207C14.5378 7.34201 14.5432 7.30147 14.5457 7.26074C14.5457 6.37357 14.5457 5.48656 14.5457 4.59971C14.5433 4.56512 14.5388 4.53067 14.5323 4.49655C14.5509 4.49655 14.5696 4.50098 14.5877 4.50098C15.5521 4.50098 16.5166 4.50098 17.481 4.50098C17.568 4.50098 17.5659 4.45922 17.5659 4.40273C17.5659 3.5185 17.5659 2.63281 17.5659 1.74563C17.5659 1.65328 17.5348 1.63216 17.4432 1.63265C16.5254 1.6356 15.6075 1.63265 14.6902 1.63265C14.5452 1.63265 14.5447 1.63265 14.5447 1.7702C14.5447 2.64427 14.5447 3.51818 14.5447 4.39192C14.543 4.42665 14.5392 4.46126 14.5333 4.49557C14.4961 4.49557 14.4593 4.49901 14.422 4.4995H11.5297C11.5297 3.57532 11.5309 2.65147 11.5334 1.72795C11.5334 1.64591 11.494 1.6297 11.4189 1.6297C10.4954 1.6297 9.57134 1.6297 8.6478 1.6297C8.52097 1.6297 8.51993 1.6297 8.51993 1.75251C8.51993 2.63674 8.51993 3.52227 8.51993 4.40911C8.52148 4.44301 8.52563 4.47052 8.5277 4.50147Z" fill="#333333"/>
<path d="M11.531 4.5017H14.4233C14.4606 4.5017 14.4973 4.5017 14.5346 4.49777H14.532C14.5389 4.53201 14.5436 4.56663 14.546 4.60142C14.546 5.48859 14.546 6.3756 14.546 7.26244C14.5434 7.30318 14.5381 7.34371 14.5299 7.38378V7.38378C14.5001 7.37793 14.4698 7.37399 14.4393 7.37199C13.5075 7.37199 12.5721 7.37199 11.6387 7.36953C11.5496 7.36953 11.53 7.39753 11.5305 7.47613C11.5331 8.34758 11.5305 9.21904 11.5305 10.0905C11.5305 10.23 11.5305 10.231 11.3788 10.231H8.65632C8.52225 10.231 8.52121 10.231 8.52121 10.1052C8.52121 9.22788 8.52121 8.35069 8.52121 7.47368C8.52121 7.44125 8.52483 7.40883 8.5269 7.37543C8.5823 7.37297 8.63821 7.36855 8.69412 7.36855C9.60524 7.36855 10.5164 7.36855 11.4275 7.36855C11.5046 7.36855 11.5383 7.35332 11.5383 7.2703C11.5358 6.34613 11.5358 5.42227 11.5383 4.49875L11.531 4.5017Z" fill="white" fill-opacity="0.25"/>
<path d="M8.52714 7.37104C8.27555 7.37104 8.02343 7.36613 7.77132 7.36613C7.05278 7.36613 6.33424 7.36613 5.61518 7.36613C5.52355 7.36613 5.49973 7.33764 5.50025 7.25413C5.50301 6.3699 5.50301 5.48388 5.50025 4.59605C5.50025 4.52777 5.51371 4.4978 5.59654 4.4978C6.57323 4.50075 7.5501 4.50075 8.52714 4.4978H8.52403C8.52403 4.96644 8.52093 5.43508 8.52093 5.90372C8.52093 6.39496 8.52093 6.88275 8.52455 7.37202L8.52714 7.37104Z" fill="white" fill-opacity="0.25"/>
<path d="M14.5349 4.49662C14.5407 4.4623 14.5445 4.42769 14.5463 4.39296C14.5463 3.51889 14.5463 2.64498 14.5463 1.77124C14.5463 1.63418 14.5463 1.63369 14.6917 1.63369C15.6091 1.63369 16.5269 1.63369 17.4448 1.63369C17.5364 1.63369 17.568 1.65433 17.5674 1.74668C17.564 2.6309 17.564 3.5166 17.5674 4.40377C17.5674 4.46125 17.5674 4.50202 17.4825 4.50202C16.5181 4.49907 15.5537 4.50202 14.5892 4.50202C14.5711 4.50202 14.5525 4.49907 14.5333 4.4976L14.5349 4.49662Z" fill="white" fill-opacity="0.25"/>
<path d="M8.52742 4.50092C8.52742 4.47194 8.52121 4.44247 8.52121 4.41299C8.52121 3.52877 8.52121 2.64323 8.52121 1.75639C8.52121 1.63456 8.52121 1.63358 8.64908 1.63358C9.57262 1.63358 10.4967 1.63358 11.4202 1.63358C11.4953 1.63358 11.5346 1.64881 11.5346 1.73183C11.5322 2.656 11.531 3.57986 11.531 4.50338H11.5336H8.52432L8.52742 4.50092Z" fill="white" fill-opacity="0.25"/>
<path d="M14.53 7.38019C14.5662 7.37317 14.6029 7.36857 14.6398 7.36644C15.5768 7.36644 16.5138 7.36644 17.4508 7.36644C17.5378 7.36644 17.5678 7.3856 17.5678 7.47353C17.5643 8.35415 17.5643 9.23461 17.5678 10.1149C17.5678 10.2073 17.5372 10.2284 17.4451 10.2284C16.521 10.2254 15.5965 10.2284 14.6719 10.2284C14.5513 10.2284 14.5476 10.2254 14.5476 10.107C14.5476 9.23265 14.5476 8.35808 14.5476 7.48335C14.5456 7.44907 14.5413 7.41494 14.5347 7.38118L14.53 7.38019Z" fill="white" fill-opacity="0.25"/>
<path d="M8.52487 4.49855H11.5342C11.5342 5.42273 11.5342 6.34658 11.5342 7.2701C11.5342 7.35214 11.5005 7.36835 11.4234 7.36835C10.5123 7.36606 9.60114 7.36606 8.69002 7.36835C8.63411 7.36835 8.5782 7.37277 8.5228 7.37523C8.5228 6.88399 8.51918 6.39669 8.51918 5.90692C8.52177 5.43583 8.52384 4.96719 8.52487 4.49855Z" fill="#333333"/>
<path d="M5.4946 14.6262C5.4946 14.289 5.2065 14.0156 4.85112 14.0156C4.49574 14.0156 4.20764 14.289 4.20764 14.6262V21.3895C4.20764 21.7268 4.49574 22.0001 4.85112 22.0001C5.2065 22.0001 5.4946 21.7268 5.4946 21.3895V14.6262Z" fill="#333333"/>
</g>
</g>
<defs>
<filter id="filter0_d" x="0.207642" y="0" width="21.791" height="30" filterUnits="userSpaceOnUse" color-interpolation-filters="sRGB">
<feFlood flood-opacity="0" result="BackgroundImageFix"/>
<feColorMatrix in="SourceAlpha" type="matrix" values="0 0 0 0 0 0 0 0 0 0 0 0 0 0 0 0 0 0 127 0" result="hardAlpha"/>
<feOffset dy="4"/>
<feGaussianBlur stdDeviation="2"/>
<feComposite in2="hardAlpha" operator="out"/>
<feColorMatrix type="matrix" values="0 0 0 0 0 0 0 0 0 0 0 0 0 0 0 0 0 0 0.25 0"/>
<feBlend mode="normal" in2="BackgroundImageFix" result="effect1_dropShadow"/>
<feBlend mode="normal" in="SourceGraphic" in2="effect1_dropShadow" result="shape"/>
</filter>
<clipPath id="clip0">
<rect width="13.791" height="22" fill="white" transform="translate(4.20764)"/>
</clipPath>
</defs>
</svg>
