<svg width="30" height="30" viewBox="0 0 30 30" fill="none" xmlns="http://www.w3.org/2000/svg">
<path d="M12.6563 22.5103H3.28152V23.4281H12.6563V22.5103Z" fill="#333333"/>
<path d="M15.4596 22.4999H14.5418V25.3124H15.4596V22.4999Z" fill="#333333"/>
<path d="M18.2725 22.4999H17.3546V25.3124H18.2725V22.4999Z" fill="#333333"/>
<path d="M21.0849 22.4999H20.1671V25.3124H21.0849V22.4999Z" fill="#333333"/>
<path d="M23.8968 22.4999H22.979V25.3124H23.8968V22.4999Z" fill="#333333"/>
<path d="M26.7096 22.4999H25.7918V25.3124H26.7096V22.4999Z" fill="#333333"/>
<path d="M29.5214 28.1354V14.258L22.9194 17.559L21.9966 0.947876H17.3813L16.4334 16.1145L13.5321 17.5651L12.6137 5.16663H8.01668L7.065 16.1112L0.478535 19.4044V28.1353H0V29.0531H30V28.1353L29.5214 28.1354ZM18.2436 1.86569H21.1284L21.1815 2.82288H18.1838L18.2436 1.86569ZM18.1264 3.74075H21.2325L21.2857 4.69793H18.0666L18.1264 3.74075ZM18.0093 5.61569H21.3367L22.0251 18.0062L20.1465 18.9455V14.258L17.3828 15.6398L18.0093 5.61569ZM8.8582 6.08444H11.7613L11.8322 7.04163H8.775L8.8582 6.08444ZM8.69514 7.95944H11.9002L11.9711 8.91663H8.61187L8.69514 7.95944ZM8.53207 9.83444H12.0391L12.6446 18.0089L10.7714 18.9455V14.258L8.02822 15.6296L8.53207 9.83444ZM3.29104 28.1354H1.39641V27.1782H3.29109V28.1354H3.29104ZM11.7285 28.1354H4.20891V24.8344H11.7285V28.1354ZM28.6035 28.1354H12.6464V27.1782H28.6035V28.1354ZM28.6035 26.2603H12.6464V23.9166H3.29104V26.2603H1.39641V19.9717L9.85354 15.7431V20.4306L19.2285 15.7431V20.4306L28.6036 15.7431V26.2603H28.6035Z" fill="#333333"/>
</svg>
