<svg width="133" height="21" viewBox="0 0 133 21" fill="none" xmlns="http://www.w3.org/2000/svg">
<path d="M130.248 7.55457V9.88436C129.148 8.46113 127.487 7.55457 125.628 7.55457C122.317 7.55457 119.632 10.4319 119.632 13.9812C119.632 17.5307 122.317 20.408 125.628 20.408C127.487 20.408 129.148 19.5014 130.248 18.0782V20.408H133V7.55457H130.248ZM126.316 18.1953C124.145 18.1953 122.384 16.3085 122.384 13.9812C122.384 11.6538 124.145 9.76702 126.316 9.76702C128.487 9.76702 130.248 11.6538 130.248 13.9812C130.248 16.3085 128.487 18.1953 126.316 18.1953Z" fill="#333333"/>
<path d="M116.881 7.55469H114.129V20.4086H116.881V7.55469Z" fill="#333333"/>
<path d="M115.503 1.12891C114.528 1.12891 113.738 1.91886 113.738 2.89351C113.738 3.86816 114.528 4.65812 115.503 4.65812C116.478 4.65812 117.268 3.86816 117.268 2.89351C117.268 1.91886 116.478 1.12891 115.503 1.12891Z" fill="#333333"/>
<path d="M105.38 7.556C103.521 7.556 101.86 8.46256 100.76 9.88579V1.12891H98.0078V20.4094H100.76V18.0797C101.86 19.5029 103.521 20.4094 105.38 20.4094C108.691 20.4094 111.376 17.5321 111.376 13.9826C111.376 10.4334 108.691 7.556 105.38 7.556ZM104.692 18.1967C102.52 18.1967 100.76 16.31 100.76 13.9826C100.76 11.6552 102.52 9.76845 104.692 9.76845C106.863 9.76845 108.624 11.6552 108.624 13.9826C108.624 16.31 106.863 18.1967 104.692 18.1967Z" fill="#333333"/>
<path d="M92.5024 9.88436C91.4027 8.46113 89.7414 7.55457 87.8827 7.55457C84.5712 7.55457 81.8868 10.4319 81.8868 13.9812C81.8868 17.5307 84.5712 20.408 87.8827 20.408C89.7414 20.408 91.4027 19.5014 92.5024 18.0782V20.408H95.2547V7.55457H92.5024V9.88436ZM88.5707 18.1953C86.3993 18.1953 84.6391 16.3085 84.6391 13.9812C84.6391 11.6538 86.3993 9.76702 88.5707 9.76702C90.7422 9.76702 92.5024 11.6538 92.5024 13.9812C92.5024 16.3085 90.7422 18.1953 88.5707 18.1953Z" fill="#333333"/>
<path d="M76.6034 7.556L70.4085 13.7511V1.12891H67.6562V20.3957V20.4094H70.4085V17.6434L72.1225 15.9295L76.6022 20.4094H80.4945L74.0686 13.9833L80.4957 7.556H76.6034Z" fill="#333333"/>
<path d="M60.2878 9.88436V7.55457H57.5355V20.408H60.2878V13.9814C60.2878 11.654 62.048 9.76726 64.2194 9.76726C64.4531 9.76726 64.682 9.78899 64.9044 9.83124V7.55457C63.0468 7.55553 61.387 8.46186 60.2878 9.88436Z" fill="#333333"/>
<path d="M45.7808 1.10193L45.7687 1.12752H42.7559L42.7441 1.10217L42.7323 1.12752L33.7415 20.4078H36.7784L39.1335 15.3571H49.3914L51.7465 20.4078H54.7835L45.7926 1.12752L45.7808 1.10193ZM48.1079 12.6048H40.417L44.2625 4.35833L48.1079 12.6048Z" fill="#333333"/>
<path d="M20.8005 16.2658L18.7988 12.7339H14L18.4011 20.4996V20.5H23.1995H23.1999V20.4996L30 8.5H25.2012L20.8005 16.2658Z" fill="#333333"/>
<path d="M11.6145 0.5H11.5549H6.83463H6.77508L0 12.5H4.77985L9.19478 4.68008L11.2202 8.26719H16L11.6145 0.5Z" fill="#333333"/>
</svg>
