<svg width="31" height="30" viewBox="0 0 31 30" fill="none" xmlns="http://www.w3.org/2000/svg">
<g clip-path="url(#clip0)">
<path d="M27.8283 29.203H26.5698V23.4286H20.1439V29.1958H18.8882V8.58323H9.33087V10.4956H10.6602C10.8372 10.4956 11.0141 10.4956 11.1897 10.4956C11.6002 10.5114 11.8551 10.7447 11.8593 11.1641C11.8735 12.2138 11.8735 13.2607 11.8593 14.3047C11.8593 14.757 11.5889 15.0003 11.1373 15.0018C9.48943 15.0018 7.84203 15.0018 6.1951 15.0018C5.74066 15.0018 5.47735 14.7641 5.47027 14.309C5.45611 13.2592 5.45611 12.2124 5.47027 11.1684C5.47027 10.7247 5.72934 10.5013 6.16962 10.4956C6.76988 10.4956 7.36871 10.4956 7.9987 10.4956V8.55031H1.65497V7.26202C2.15046 7.26202 2.63038 7.27347 3.1103 7.26202C3.33159 7.25788 3.55067 7.21677 3.75869 7.14035C8.93447 5.0476 14.107 2.95151 19.2761 0.852077C19.3717 0.802905 19.4791 0.782182 19.5859 0.792318C19.6926 0.802454 19.7944 0.843033 19.8792 0.909334C22.8861 2.94626 25.9016 4.9703 28.9071 7.00866C29.1546 7.18593 29.4535 7.27459 29.7565 7.26059C30.1642 7.24198 30.5734 7.26059 30.9953 7.26059V8.54888H27.8283V29.203ZM20.5814 8.56892C22.5634 12.4166 24.5199 16.2013 26.4735 19.9874L26.5273 19.966V8.56892H20.5814ZM20.1666 22.0759H26.1125C24.1305 18.244 22.1811 14.455 20.2261 10.666L20.168 10.6903L20.1666 22.0759ZM18.8514 7.23053V2.4152L7.10115 7.16755L7.1238 7.23626L18.8514 7.23053ZM20.1694 7.21622H26.9365L20.1694 2.65711V7.21622ZM10.571 13.7006V11.8111H6.77695V13.7063L10.571 13.7006Z" fill="#333333"/>
<path d="M13.7811 28.2823C13.0615 28.8835 12.1572 29.2124 11.2237 29.2124C10.2902 29.2124 9.38583 28.8835 8.66622 28.2823C7.94846 28.9422 7.07356 29.207 6.11797 29.2099C5.17752 29.2392 4.26148 28.9043 3.55698 28.2737C2.84913 28.9293 1.98555 29.1755 1.02288 29.2084V27.9588C2.15544 27.7412 2.37345 27.6553 2.72879 27.2617C2.44565 26.7406 2.14694 26.2196 1.87938 25.6871C1.46103 24.9156 1.17389 24.0785 1.02996 23.2107C0.930861 22.5122 1.04695 22.2932 1.69675 22.0556C2.20357 21.8695 2.70614 21.6734 3.21862 21.503C3.32586 21.4838 3.42135 21.4228 3.48461 21.3331C3.54786 21.2435 3.57385 21.1323 3.55698 21.0235C3.53999 19.9542 3.54848 18.8764 3.5499 17.8128C3.5499 17.1629 3.77358 16.9425 4.4248 16.9425H12.9317C13.5574 16.9425 13.7811 17.1672 13.7811 17.8014C13.7811 18.895 13.7811 19.99 13.7811 21.0836C13.7663 21.1689 13.7856 21.2565 13.8347 21.3274C13.8838 21.3983 13.9587 21.4465 14.043 21.4615C14.6433 21.6648 15.2322 21.901 15.8282 22.1157C15.9893 22.1585 16.1293 22.2595 16.2219 22.3995C16.3145 22.5395 16.3532 22.7089 16.3308 22.8758C16.2827 23.8592 15.9302 24.7467 15.4984 25.6084C15.2152 26.1681 14.9094 26.712 14.6079 27.2746C15.0652 27.7784 15.6767 27.8743 16.3067 27.9416V29.2113C15.3568 29.1798 14.5102 28.9365 13.7811 28.2823ZM11.2031 27.9273C11.9336 27.9015 12.6188 27.7469 13.0775 27.15C13.9199 26.064 14.5368 24.8171 14.891 23.4841C14.9491 23.2723 14.9236 23.1506 14.6787 23.0619C12.759 22.3676 10.8464 21.6519 8.92812 20.9534C8.77817 20.8991 8.61502 20.8946 8.46236 20.9405C6.54268 21.6362 4.63007 22.3505 2.71039 23.0433C2.44141 23.1406 2.37487 23.2437 2.45273 23.5271C2.7925 24.7653 3.40125 25.8589 4.07937 26.9382C4.87782 28.2107 7.34821 28.2594 8.13109 26.9382C8.1821 26.8424 8.25736 26.762 8.34918 26.7053C8.44099 26.6486 8.54607 26.6175 8.65365 26.6153C8.76123 26.6131 8.86745 26.6399 8.96145 26.6929C9.05545 26.7458 9.13384 26.8231 9.18861 26.9167C9.67703 27.6596 10.3934 27.893 11.2031 27.9273V27.9273ZM12.4773 20.8832V18.2537H4.85234V20.8789C4.99391 20.8317 5.10433 20.7988 5.21192 20.7587C6.23689 20.3851 7.2576 19.9957 8.29106 19.645C8.5312 19.5723 8.78665 19.5689 9.02864 19.635C9.47883 19.7567 9.91345 19.9456 10.3537 20.106L12.4773 20.8832Z" fill="#333333"/>
<path d="M6.1222 24.3632C6.09565 24.529 6.05925 24.6929 6.01319 24.8542C5.92259 25.1133 5.74846 25.3695 5.46673 25.3065C5.24391 25.2289 5.058 25.0695 4.94576 24.8599C4.85713 24.7037 4.8118 24.5261 4.81454 24.346C4.81728 24.1659 4.86799 23.9899 4.96133 23.8365C5.07677 23.6426 5.25786 23.4976 5.47098 23.4285C5.74563 23.3612 5.91126 23.6046 6.00328 23.8479C6.0555 24.0165 6.09525 24.1887 6.1222 24.3632V24.3632Z" fill="#333333"/>
<path d="M11.2049 24.3887C11.2308 24.2272 11.2648 24.0672 11.3068 23.9092C11.3974 23.6358 11.5489 23.4082 11.8731 23.4168C12.1973 23.4254 12.3176 23.6558 12.4125 23.9063C12.4846 24.0699 12.517 24.2485 12.5069 24.4273C12.4968 24.6061 12.4445 24.7799 12.3544 24.9341C12.2496 25.103 12.0274 25.2977 11.8575 25.2991C11.6876 25.3005 11.4795 25.1001 11.362 24.9355C11.2445 24.7709 11.2502 24.5605 11.2049 24.3887Z" fill="#333333"/>
</g>
<defs>
<clipPath id="clip0">
<rect width="30" height="28.4211" fill="white" transform="translate(0.998718 0.789474)"/>
</clipPath>
</defs>
</svg>
