<svg width="18" height="16" viewBox="0 0 18 16" fill="none" xmlns="http://www.w3.org/2000/svg">
<path d="M14.0659 11.5128L17.5643 14.8855L16.4085 16L12.9109 12.6266C11.6095 13.6325 9.99085 14.1797 8.32293 14.1774C4.26504 14.1774 0.97168 11.0017 0.97168 7.08871C0.97168 3.17574 4.26504 0 8.32293 0C12.3808 0 15.6742 3.17574 15.6742 7.08871C15.6766 8.69706 15.1091 10.2579 14.0659 11.5128ZM12.4274 10.9284C13.464 9.90047 14.0429 8.52254 14.0406 7.08871C14.0406 4.04214 11.4815 1.57527 8.32293 1.57527C5.16352 1.57527 2.60529 4.04214 2.60529 7.08871C2.60529 10.1345 5.16352 12.6021 8.32293 12.6021C9.80986 12.6044 11.2388 12.0462 12.3049 11.0466L12.4274 10.9284Z" fill="#4F4F4F"/>
</svg>
